<svg width="64" height="64" xmlns="http://www.w3.org/2000/svg"><path d="M32 29.333333c8.836556 0 16 7.163444 16 16V55c0 2.025044-1.641623 3.666667-3.666667 3.666667H19.666667C17.641623 58.666667 16 57.025044 16 55v-9.666667c0-8.836556 7.163444-16 16-16zm0 5.333334c-5.891037 0-10.666667 4.775629-10.666667 10.666666V52c0 .73638.596954 1.333333 1.333334 1.333333h18.666666c.73638 0 1.333334-.596953 1.333334-1.333333v-6.666667c0-5.891037-4.77563-10.666666-10.666667-10.666666zm0-29.333334c5.891037 0 10.666667 4.77563 10.666667 10.666667 0 5.891037-4.77563 10.666667-10.666667 10.666667-5.891037 0-10.666667-4.77563-10.666667-10.666667 0-5.891037 4.77563-10.666667 10.666667-10.666667zm0 5.333334c-2.945519 0-5.333333 2.387814-5.333333 5.333333 0 2.945519 2.387814 5.333333 5.333333 5.333333 2.945519 0 5.333333-2.387814 5.333333-5.333333 0-2.945519-2.387814-5.333333-5.333333-5.333333z" fill="#3DCC3D" fill-rule="evenodd"/></svg>
