<svg width="64" height="64" xmlns="http://www.w3.org/2000/svg"><path d="M32 13.333333c10.309315 0 18.666667 8.357352 18.666667 18.666667 0 6.201494-3.051474 11.873731-8 15.321082v6.012251c0 3.52304-2.277304 6.514188-5.440158 7.581689C36.814486 62.683134 35.227695 64 33.333333 64h-2.666666c-1.894362 0-3.481153-1.316866-3.894891-3.085116-3.161139-1.067363-5.438443-4.05851-5.438443-7.58155v-6.012252c-4.948526-3.44735-8-9.119588-8-15.321082 0-10.309315 8.357352-18.666667 18.666667-18.666667zM37.333 50.666H26.666l.000667 2.667333c0 1.47276 1.193907 2.666667 2.666666 2.666667h5.333334c1.472759 0 2.666666-1.193907 2.666666-2.666667L37.333 50.666zm-20.417945-3.581055c1.041398 1.041398 1.041398 2.729838 0 3.771236l-3.771236 3.771236c-1.041398 1.041398-2.729838 1.041398-3.771236 0s-1.041398-2.729838 0-3.771236l3.771236-3.771236c1.041398-1.041398 2.729838-1.041398 3.771236 0zm33.941126 0l3.771236 3.771236c1.041398 1.041398 1.041398 2.729838 0 3.771236s-2.729838 1.041398-3.771236 0l-3.771236-3.771236c-1.041398-1.041398-1.041398-2.729838 0-3.771236s2.729838-1.041398 3.771236 0zM32 18.666667c-7.363797 0-13.333333 5.969536-13.333333 13.333333 0 4.816695 2.573292 9.182194 6.668602 11.551203l1.331398.770171L26.666 48h10.667l.000333-3.678626 1.331398-.770171C42.76004 41.182193 45.333333 36.816695 45.333333 32c0-7.363797-5.969536-13.333333-13.333333-13.333333zM8 29.333333c1.47276 0 2.666667 1.193908 2.666667 2.666667 0 1.47276-1.193908 2.666667-2.666667 2.666667H2.666667C1.193907 34.666667 0 33.472759 0 32c0-1.47276 1.193907-2.666667 2.666667-2.666667H8zm53.333333 0C62.806093 29.333333 64 30.527241 64 32c0 1.47276-1.193907 2.666667-2.666667 2.666667H56c-1.47276 0-2.666667-1.193908-2.666667-2.666667 0-1.47276 1.193908-2.666667 2.666667-2.666667h5.333333zm-6.705916-19.96075c1.041398 1.041398 1.041398 2.729838 0 3.771236l-3.771236 3.771236c-1.041398 1.041398-2.729838 1.041398-3.771236 0s-1.041398-2.729838 0-3.771236l3.771236-3.771236c1.041398-1.041398 2.729838-1.041398 3.771236 0zm-41.483598 0l3.771236 3.771236c1.041398 1.041398 1.041398 2.729838 0 3.771236s-2.729838 1.041398-3.771236 0L9.372583 13.14382c-1.041398-1.041398-1.041398-2.729838 0-3.771236s2.729838-1.041398 3.771236 0zM32 0c1.47276 0 2.666667 1.193907 2.666667 2.666667V8c0 1.47276-1.193908 2.666667-2.666667 2.666667-1.47276 0-2.666667-1.193908-2.666667-2.666667V2.666667C29.333333 1.193907 30.527241 0 32 0z" fill="#FFD426" fill-rule="evenodd"/></svg>